<svg viewBox="0 0 1267 1024" xmlns="http://www.w3.org/2000/svg" xmlns:xlink="http://www.w3.org/1999/xlink" width="247.4609375" height="200">
  <path d="M311.978667 362.642286l9.386666-23.210667H376.685714l9.386667 23.210667h28.842667l-51.029334-119.466667h-27.794285l-51.907048 119.466667h27.818667zm55.978666-44.885334H330.24l18.944-46.421333 18.773333 46.421333z" fill="#2684FC"/>
  <path d="M211.626667 406.528h878.689523v37.546667H211.626667z" fill="#9BC5FB"/>
  <path d="M269.385143 406.528a18.773333 18.773333 0 0 1 18.773333 18.773333v0a18.773333 18.773333 0 0 1-18.773333 18.773334h-124.050286a18.773333 18.773333 0 0 1-18.773333-18.773334v0a18.773333 18.773333 0 0 1 18.773333-18.773333z" fill="#2684FC"/>
  <path d="M594.066286 362.642286c27.648 0 45.056-12.629333 45.056-33.109334 0-15.701333-9.386667-27.306667-24.917334-30.208 12.8-3.413333 20.650667-13.482667 20.650667-26.282666 0-18.432-16.384-29.866667-42.666667-29.866667h-54.954666v119.466667h56.807619zm-3.242667-71.338667H564.175238V265.191619h26.624c10.24-0.170667 16.384 4.608 16.384 12.8 0 8.362667-6.144 13.312-16.384 13.312zm0 49.322667H564.175238V312.295619h26.624c12.629333-0.170667 20.48 5.12 20.48 13.824 0 9.216-7.850667 14.506667-20.48 14.506667z" fill="#9BC5FB"/>
  <rect x="278.918095" y="483.669333" width="661.210524" height="284.038096" rx="48.761905" fill="#9BC5FB"/>
  <path d="M992.792381 124.928a97.52381 97.52381 0 0 1 97.523809 97.52381v579.09638a97.52381 97.52381 0 0 1-97.523809 97.52381H275.017143a97.52381 97.52381 0 0 1-97.52381-97.52381V222.45181a97.52381 97.52381 0 0 1 97.52381-97.52381h717.775238zm0 34.133333H275.017143a63.390476 63.390476 0 0 0-63.268572 59.392v579.09638a63.390476 63.390476 0 0 0 59.392 63.268572h717.775238a63.390476 63.390476 0 0 0 63.268571-59.392v-579.09638a63.390476 63.390476 0 0 0-59.392-63.268572z" fill="#2684FC"/>
</svg>