<?xml version="1.0" encoding="UTF-8"?>
<svg 
  xmlns="http://www.w3.org/2000/svg" 
  xmlns:xlink="http://www.w3.org/1999/xlink" 
  viewBox="0 0 1024 1024" 
  width="200" 
  height="200"
>
  <path 
    d="M981.333 790.827a256.6 256.6 0 0 0-18.346-89.515 967.25 967.25 0 0 0-22.23-52.224l-0.68-1.493-3.2-7.125A11459.1 11459.1 0 0 0 707.84 162.048l-0.128-0.299a1671.38 1671.38 0 0 0-26.155-50.346c-13.952-25.387-28.16-45.227-45.354-61.44A180.52 180.52 0 0 0 522.752 0h-30.08a180.57 180.57 0 0 0-117.93 51.712c-16.256 15.701-29.909 34.944-43.52 59.648-7.68 13.952-13.952 26.112-25.941 49.835l-1.408 2.816-5.504 10.837a11538.1 11538.1 0 0 0-151.296 310.613A9360.2 9360.2 0 0 0 72.533 673.451c-15.104 34.389-23.637 60.117-27.392 87.424a232.28 232.28 0 0 0 31.317 154.027 227.11 227.11 0 0 0 102.059 89.856c32.682 14.421 68.736 20.906 104.234 18.773 44.8-2.389 89.856-18.176 131.584-44.501 38.187-23.85 72.534-54.741 112.768-98.773h-30.08c36.907 40.49 68.907 69.845 104.064 93.184 41.259 27.648 85.504 45.013 130.133 49.28a225.49 225.49 0 0 0 148.864-36.992 229.97 229.97 0 0 0 85.248-106.667A231.98 231.98 0 0 0 981.333 790.613v0.171zm-105.685 42.496a126.76 126.76 0 0 1-58.667 74.923c-24.746 14.08-54.613 19.2-83.2 14.336-33.963-5.376-67.37-22.955-102.101-51.499-20.48-16.682-40.021-36.224-63.659-62.635l0.896 26.283c38.955-50.176 66.987-92.672 88.747-137.088 24.277-49.92 37.973-96.512 39.424-142.805 0.939-34.773-5.888-68.267-20.693-97.024a177.92 177.92 0 0 0-98.261-85.973 195.29 195.29 0 0 0-120.448-3.84 180.39 180.39 0 0 0-94.89 65.45 185.26 185.26 0 0 0-34.987 95.786c-3.712 43.861 5.376 89.472 24.917 137.77 23.168 56.15 56.832 109.867 102.613 167.382l0.427-26.026c-16.768 19.755-35.413 38.571-55.723 56.32-34.645 29.867-67.498 48.853-101.29 56.32a128.68 128.68 0 0 1-86.997-10.24 126.46 126.46 0 0 1-63.83-79.53 134.31 134.31 0 0 1 2.901-77.397c4.992-14.934 10.069-27.008 21.931-53.547l1.024-2.218 4.992-11.264A11419.4 11419.4 0 0 1 403.328 217.344l0.299-0.597c13.738-27.222 20.096-39.595 28.245-54.486 10.88-19.754 20.48-32.555 32-41.515a75.605 75.605 0 0 1 48.426-16.555c18.347-0.213 36.267 6.443 50.133 18.347 12.373 10.453 21.802 24.234 34.475 48.298 18.176 34.774 34.005 66.176 63.019 124.545l5.205 10.41 0.555 1.152a11192.1 11192.1 0 0 1 189.227 401.323l1.109 2.517c11.093 25.173 15.701 36.693 19.627 50.859a133.42 133.42 0 0 1 0 71.637zm-347.733-74.069c-8.533-10.24-15.445-19.755-28.757-39.211l-1.792-2.56-1.024-1.493a528 528 0 0 1-44.672-79.573c-11.008-25.173-17.963-47.957-20.736-69.973-2.347-20.352-1.067-37.931 4.522-52.566 5.248-14.506 15.275-27.093 28.032-35.37 31.915-20.992 77.44-18.261 105.515 6.4 13.44 11.69 22.229 29.568 24.448 49.066 2.816 24.96-1.834 52.138-13.099 82.688-17.237 46.165-44.032 90.453-84.266 143.317l16.213 12.416 15.616-13.141z" 
    fill="#FD5C63"
  />
</svg>